{"accessors" : [{"bufferView" : 0, "byteOffset" : 0, "componentType" : 5123, "count" : 1506, "type" : "SCALAR", "max" : [1505], "min" : [0]}, {"bufferView" : 1, "byteOffset" : 0, "componentType" : 5126, "count" : 1506, "type" : "VEC3", "max" : [0.5599316358566284, 0.8606704473495483, 0.20000000298023224], "min" : [-0.5600683689117432, -1.059999942779541, 0], "name" : "POSITION"}, {"bufferView" : 1, "byteOffset" : 12, "componentType" : 5126, "count" : 1506, "type" : "VEC3", "max" : [1.0000044107437134, 1.0000044107437134, 1.0000044107437134], "min" : [-1.0000044107437134, -1.0000044107437134, -1.0000044107437134], "name" : "NORMAL"}, {"bufferView" : 1, "byteOffset" : 24, "componentType" : 5126, "count" : 1506, "type" : "VEC2", "max" : [1, 2.3220860958099365], "min" : [-0.5600000023841858, -0.3220860958099365], "name" : "TEXCOORD_0"}, {"bufferView" : 0, "byteOffset" : 3012, "componentType" : 5123, "count" : 384, "type" : "SCALAR", "max" : [383], "min" : [0]}, {"bufferView" : 2, "byteOffset" : 0, "componentType" : 5126, "count" : 384, "type" : "VEC3", "max" : [0.5599316358566284, 0.2499527782201767, 0.25], "min" : [-0.5600683689117432, -0.05999999865889549, 0.20000000298023224], "name" : "POSITION"}, {"bufferView" : 2, "byteOffset" : 12, "componentType" : 5126, "count" : 384, "type" : "VEC3", "max" : [1.0000044107437134, 1.0000044107437134, 1.0000044107437134], "min" : [-1.0000044107437134, -1.0000044107437134, -1.0000044107437134], "name" : "NORMAL"}, {"bufferView" : 2, "byteOffset" : 24, "componentType" : 5126, "count" : 384, "type" : "VEC2", "max" : [1.1200000047683716, 1.1549763679504395], "min" : [-0.5600000023841858, 0.8450236320495605], "name" : "TEXCOORD_0"}, {"bufferView" : 0, "byteOffset" : 3780, "componentType" : 5123, "count" : 384, "type" : "SCALAR", "max" : [383], "min" : [0]}, {"bufferView" : 3, "byteOffset" : 0, "componentType" : 5126, "count" : 384, "type" : "VEC3", "max" : [0.5599316358566284, 0.2499527782201767, 0], "min" : [-0.5600683689117432, -0.05999999865889549, -0.05000000074505806], "name" : "POSITION"}, {"bufferView" : 3, "byteOffset" : 12, "componentType" : 5126, "count" : 384, "type" : "VEC3", "max" : [1.0000044107437134, 1.0000044107437134, 1.0000044107437134], "min" : [-1.0000044107437134, -1.0000044107437134, -1.0000044107437134], "name" : "NORMAL"}, {"bufferView" : 3, "byteOffset" : 24, "componentType" : 5126, "count" : 384, "type" : "VEC2", "max" : [1.1200000047683716, 1.1549763679504395], "min" : [-0.5600000023841858, 0.8450236320495605], "name" : "TEXCOORD_0"}], "asset" : {"generator" : "Aspose.3D 24.6.0", "version" : "2.0"}, "buffers" : [{"uri" : "data:application/octet-stream;base64,", "byteLength" : 77332}], "bufferViews" : [{"buffer" : 0, "byteOffset" : 0, "byteLength" : 4548, "target" : 34963}, {"buffer" : 0, "byteOffset" : 4552, "byteLength" : 48192, "byteStride" : 32, "target" : 34962}, {"buffer" : 0, "byteOffset" : 52748, "byteLength" : 12288, "byteStride" : 32, "target" : 34962}, {"buffer" : 0, "byteOffset" : 65040, "byteLength" : 12288, "byteStride" : 32, "target" : 34962}], "materials" : [{"name" : "Steel - Satin", "pbrMetallicRoughness" : {"baseColorFactor" : [0.6274509803921569, 0.6274509803921569, 0.6274509803921569, 1], "metallicFactor" : 1, "roughnessFactor" : 1}, "emissiveFactor" : [0, 0, 0], "alphaMode" : "OPAQUE", "doubleSided" : false}], "meshes" : [{"primitives" : [{"attributes" : {"POSITION" : 1, "NORMAL" : 2, "TEXCOORD_0" : 3}, "indices" : 0, "material" : 0, "mode" : 4}], "name" : "Body1"}, {"primitives" : [{"attributes" : {"POSITION" : 5, "NORMAL" : 6, "TEXCOORD_0" : 7}, "indices" : 4, "material" : 0, "mode" : 4}], "name" : "Body2"}, {"primitives" : [{"attributes" : {"POSITION" : 9, "NORMAL" : 10, "TEXCOORD_0" : 11}, "indices" : 8, "material" : 0, "mode" : 4}], "name" : "Body3"}], "nodes" : [{"matrix" : [10, 0, 0, 0, 0, 10, 0, 0, 0, 0, 10, 0, 0, 0, 0, 1], "mesh" : 0, "name" : "Body1"}, {"matrix" : [10, 0, 0, 0, 0, 10, 0, 0, 0, 0, 10, 0, 0, 0, 0, 1], "mesh" : 1, "name" : "Body2"}, {"matrix" : [10, 0, 0, 0, 0, 10, 0, 0, 0, 0, 10, 0, 0, 0, 0, 1], "mesh" : 2, "name" : "Body3"}, {"children" : [0, 1, 2], "name" : "Snapper v3"}], "scene" : 0, "scenes" : [{"nodes" : [3]}]}